<svg width="1440" height="80" viewBox="0 0 1440 80" fill="none" xmlns="http://www.w3.org/2000/svg">
<g filter="url(#filter0_d)">
<rect x="-1" y="10" width="1440" height="70" fill="white"/>
</g>
<path d="M1208.52 40.125C1208.55 40.25 1208.56 40.4531 1208.56 40.7344C1208.56 42.9844 1208.02 45.1562 1206.92 47.25C1205.8 49.4688 1204.22 51.2344 1202.19 52.5469C1199.97 54.0156 1197.42 54.75 1194.55 54.75C1191.8 54.75 1189.28 54.0156 1187 52.5469C1187.34 52.5781 1187.73 52.5938 1188.17 52.5938C1190.45 52.5938 1192.5 51.8906 1194.31 50.4844C1193.22 50.4844 1192.25 50.1719 1191.41 49.5469C1190.59 48.8906 1190.03 48.0781 1189.72 47.1094C1190.03 47.1406 1190.33 47.1562 1190.61 47.1562C1191.05 47.1562 1191.48 47.1094 1191.92 47.0156C1190.8 46.7656 1189.86 46.1875 1189.11 45.2812C1188.36 44.375 1187.98 43.3438 1187.98 42.1875V42.0938C1188.67 42.5 1189.41 42.7188 1190.19 42.75C1189.53 42.2812 1189 41.6875 1188.59 40.9688C1188.19 40.25 1187.98 39.4688 1187.98 38.625C1187.98 37.75 1188.22 36.9219 1188.69 36.1406C1189.91 37.6719 1191.39 38.8906 1193.14 39.7969C1194.92 40.7031 1196.81 41.2031 1198.81 41.2969C1198.75 40.9219 1198.72 40.5469 1198.72 40.1719C1198.72 39.2969 1198.94 38.4844 1199.38 37.7344C1199.81 36.9531 1200.41 36.3438 1201.16 35.9062C1201.91 35.4688 1202.72 35.25 1203.59 35.25C1204.31 35.25 1204.97 35.3906 1205.56 35.6719C1206.19 35.9531 1206.73 36.3281 1207.2 36.7969C1208.33 36.5781 1209.38 36.1875 1210.34 35.625C1209.97 36.7812 1209.25 37.6875 1208.19 38.3438C1209.12 38.2188 1210.06 37.9531 1211 37.5469C1210.31 38.5469 1209.48 39.4062 1208.52 40.125Z" fill="url(#paint0_linear)"/>
<path d="M1253.5 36.75V53.25C1253.5 53.875 1253.28 54.4062 1252.84 54.8438C1252.41 55.2812 1251.88 55.5 1251.25 55.5H1247.27V47.2031H1250.08L1250.5 44.0156H1247.27V42C1247.27 41.5 1247.36 41.125 1247.55 40.875C1247.8 40.5938 1248.22 40.4531 1248.81 40.4531H1250.5V37.6406C1249.84 37.5469 1249.03 37.5 1248.06 37.5C1246.81 37.5 1245.81 37.875 1245.06 38.625C1244.34 39.3438 1243.98 40.3594 1243.98 41.6719V44.0156H1241.12V47.2031H1243.98V55.5H1234.75C1234.12 55.5 1233.59 55.2812 1233.16 54.8438C1232.72 54.4062 1232.5 53.875 1232.5 53.25V36.75C1232.5 36.125 1232.72 35.5938 1233.16 35.1562C1233.59 34.7188 1234.12 34.5 1234.75 34.5H1251.25C1251.88 34.5 1252.41 34.7188 1252.84 35.1562C1253.28 35.5938 1253.5 36.125 1253.5 36.75Z" fill="url(#paint1_linear)"/>
<path d="M1287 39.6094C1286.03 39.6094 1285.12 39.8594 1284.28 40.3594C1283.47 40.8281 1282.81 41.4844 1282.31 42.3281C1281.84 43.1406 1281.61 44.0312 1281.61 45C1281.61 45.9688 1281.84 46.875 1282.31 47.7188C1282.81 48.5312 1283.47 49.1875 1284.28 49.6875C1285.12 50.1562 1286.03 50.3906 1287 50.3906C1287.97 50.3906 1288.86 50.1562 1289.67 49.6875C1290.52 49.1875 1291.17 48.5312 1291.64 47.7188C1292.14 46.875 1292.39 45.9688 1292.39 45C1292.39 44.0312 1292.14 43.1406 1291.64 42.3281C1291.17 41.4844 1290.52 40.8281 1289.67 40.3594C1288.86 39.8594 1287.97 39.6094 1287 39.6094ZM1287 48.5156C1286.03 48.5156 1285.2 48.1719 1284.52 47.4844C1283.83 46.7969 1283.48 45.9688 1283.48 45C1283.48 44.0312 1283.83 43.2031 1284.52 42.5156C1285.2 41.8281 1286.03 41.4844 1287 41.4844C1287.97 41.4844 1288.8 41.8281 1289.48 42.5156C1290.17 43.2031 1290.52 44.0312 1290.52 45C1290.52 45.9688 1290.17 46.7969 1289.48 47.4844C1288.8 48.1719 1287.97 48.5156 1287 48.5156ZM1293.89 39.375C1293.86 39.7188 1293.72 40.0156 1293.47 40.2656C1293.25 40.5156 1292.97 40.6406 1292.62 40.6406C1292.28 40.6406 1291.98 40.5156 1291.73 40.2656C1291.48 40.0156 1291.36 39.7188 1291.36 39.375C1291.36 39.0312 1291.48 38.7344 1291.73 38.4844C1291.98 38.2344 1292.28 38.1094 1292.62 38.1094C1292.97 38.1094 1293.27 38.2344 1293.52 38.4844C1293.77 38.7344 1293.89 39.0312 1293.89 39.375ZM1297.45 40.6406C1297.39 39.7344 1297.25 38.9531 1297.03 38.2969C1296.75 37.5156 1296.31 36.8438 1295.72 36.2812C1295.16 35.6875 1294.48 35.25 1293.7 34.9688C1293.05 34.75 1292.27 34.625 1291.36 34.5938C1290.48 34.5312 1289.03 34.5 1287 34.5C1284.97 34.5 1283.5 34.5312 1282.59 34.5938C1281.72 34.625 1280.95 34.75 1280.3 34.9688C1279.52 35.25 1278.83 35.6875 1278.23 36.2812C1277.67 36.8438 1277.25 37.5156 1276.97 38.2969C1276.75 38.9531 1276.61 39.7344 1276.55 40.6406C1276.52 41.5156 1276.5 42.9688 1276.5 45C1276.5 47.0312 1276.52 48.5 1276.55 49.4062C1276.61 50.2812 1276.75 51.0469 1276.97 51.7031C1277.25 52.4844 1277.67 53.1719 1278.23 53.7656C1278.83 54.3281 1279.52 54.7344 1280.3 54.9844C1280.95 55.2344 1281.72 55.375 1282.59 55.4062C1283.5 55.4688 1284.97 55.5 1287 55.5C1289.03 55.5 1290.48 55.4688 1291.36 55.4062C1292.27 55.375 1293.05 55.25 1293.7 55.0312C1294.48 54.75 1295.16 54.3281 1295.72 53.7656C1296.31 53.1719 1296.75 52.4844 1297.03 51.7031C1297.25 51.0469 1297.38 50.2812 1297.41 49.4062C1297.47 48.5 1297.5 47.0312 1297.5 45C1297.5 42.9688 1297.48 41.5156 1297.45 40.6406ZM1295.2 51.1875C1294.83 52.125 1294.16 52.7969 1293.19 53.2031C1292.69 53.3906 1291.84 53.5156 1290.66 53.5781C1290 53.6094 1289.03 53.625 1287.75 53.625H1286.25C1285 53.625 1284.03 53.6094 1283.34 53.5781C1282.19 53.5156 1281.34 53.3906 1280.81 53.2031C1279.88 52.8281 1279.2 52.1562 1278.8 51.1875C1278.61 50.6562 1278.48 49.8125 1278.42 48.6562C1278.39 47.9688 1278.38 47 1278.38 45.75V44.25C1278.38 43 1278.39 42.0312 1278.42 41.3438C1278.48 40.1562 1278.61 39.3125 1278.8 38.8125C1279.17 37.8438 1279.84 37.1719 1280.81 36.7969C1281.34 36.6094 1282.19 36.4844 1283.34 36.4219C1284.03 36.3906 1285 36.375 1286.25 36.375H1287.75C1289 36.375 1289.97 36.3906 1290.66 36.4219C1291.84 36.4844 1292.69 36.6094 1293.19 36.7969C1294.16 37.1719 1294.83 37.8438 1295.2 38.8125C1295.39 39.3125 1295.52 40.1562 1295.58 41.3438C1295.61 42 1295.62 42.9688 1295.62 44.25V45.75C1295.62 47 1295.61 47.9688 1295.58 48.6562C1295.52 49.8125 1295.39 50.6562 1295.2 51.1875Z" fill="url(#paint2_linear)"/>
<path d="M144.852 50.084C143.881 50.084 143.004 49.8693 142.22 49.44C141.445 49.0107 140.834 48.418 140.386 47.662C139.947 46.8967 139.728 46.0427 139.728 45.1C139.728 44.1573 139.947 43.308 140.386 42.552C140.834 41.7867 141.45 41.1893 142.234 40.76C143.018 40.3307 143.895 40.116 144.866 40.116C145.594 40.116 146.266 40.2373 146.882 40.48C147.498 40.7227 148.021 41.0773 148.45 41.544L147.792 42.202C147.027 41.4273 146.061 41.04 144.894 41.04C144.119 41.04 143.415 41.2173 142.78 41.572C142.145 41.9267 141.646 42.412 141.282 43.028C140.927 43.644 140.75 44.3347 140.75 45.1C140.75 45.8653 140.927 46.556 141.282 47.172C141.646 47.788 142.145 48.2733 142.78 48.628C143.415 48.9827 144.119 49.16 144.894 49.16C146.07 49.16 147.036 48.768 147.792 47.984L148.45 48.642C148.021 49.1087 147.493 49.468 146.868 49.72C146.252 49.9627 145.58 50.084 144.852 50.084ZM153.13 50.07C152.421 50.07 151.782 49.9113 151.212 49.594C150.643 49.2673 150.195 48.8193 149.868 48.25C149.542 47.6807 149.378 47.0367 149.378 46.318C149.378 45.5993 149.542 44.9553 149.868 44.386C150.195 43.8167 150.643 43.3733 151.212 43.056C151.782 42.7387 152.421 42.58 153.13 42.58C153.84 42.58 154.479 42.7387 155.048 43.056C155.618 43.3733 156.061 43.8167 156.378 44.386C156.705 44.9553 156.868 45.5993 156.868 46.318C156.868 47.0367 156.705 47.6807 156.378 48.25C156.061 48.8193 155.618 49.2673 155.048 49.594C154.479 49.9113 153.84 50.07 153.13 50.07ZM153.13 49.188C153.653 49.188 154.12 49.0713 154.53 48.838C154.95 48.5953 155.277 48.2547 155.51 47.816C155.744 47.3773 155.86 46.878 155.86 46.318C155.86 45.758 155.744 45.2587 155.51 44.82C155.277 44.3813 154.95 44.0453 154.53 43.812C154.12 43.5693 153.653 43.448 153.13 43.448C152.608 43.448 152.136 43.5693 151.716 43.812C151.306 44.0453 150.979 44.3813 150.736 44.82C150.503 45.2587 150.386 45.758 150.386 46.318C150.386 46.878 150.503 47.3773 150.736 47.816C150.979 48.2547 151.306 48.5953 151.716 48.838C152.136 49.0713 152.608 49.188 153.13 49.188ZM162.692 42.58C163.382 42.58 164.008 42.7387 164.568 43.056C165.128 43.364 165.566 43.8027 165.884 44.372C166.201 44.9413 166.36 45.59 166.36 46.318C166.36 47.0553 166.201 47.7087 165.884 48.278C165.566 48.8473 165.128 49.2907 164.568 49.608C164.017 49.916 163.392 50.07 162.692 50.07C162.094 50.07 161.553 49.9487 161.068 49.706C160.592 49.454 160.2 49.09 159.892 48.614V52.716H158.898V42.636H159.85V44.092C160.148 43.6067 160.54 43.2333 161.026 42.972C161.52 42.7107 162.076 42.58 162.692 42.58ZM162.622 49.188C163.135 49.188 163.602 49.0713 164.022 48.838C164.442 48.5953 164.768 48.2547 165.002 47.816C165.244 47.3773 165.366 46.878 165.366 46.318C165.366 45.758 165.244 45.2633 165.002 44.834C164.768 44.3953 164.442 44.0547 164.022 43.812C163.602 43.5693 163.135 43.448 162.622 43.448C162.099 43.448 161.628 43.5693 161.208 43.812C160.797 44.0547 160.47 44.3953 160.228 44.834C159.994 45.2633 159.878 45.758 159.878 46.318C159.878 46.878 159.994 47.3773 160.228 47.816C160.47 48.2547 160.797 48.5953 161.208 48.838C161.628 49.0713 162.099 49.188 162.622 49.188ZM174.369 42.636L170.687 50.882C170.388 51.5727 170.043 52.0627 169.651 52.352C169.259 52.6413 168.788 52.786 168.237 52.786C167.882 52.786 167.551 52.73 167.243 52.618C166.935 52.506 166.669 52.338 166.445 52.114L166.907 51.372C167.28 51.7453 167.728 51.932 168.251 51.932C168.587 51.932 168.872 51.8387 169.105 51.652C169.348 51.4653 169.572 51.148 169.777 50.7L170.099 49.986L166.809 42.636H167.845L170.617 48.894L173.389 42.636H174.369ZM176.721 44.078C176.954 43.5833 177.299 43.21 177.757 42.958C178.223 42.706 178.797 42.58 179.479 42.58V43.546L179.241 43.532C178.466 43.532 177.859 43.77 177.421 44.246C176.982 44.722 176.763 45.3893 176.763 46.248V50H175.769V42.636H176.721V44.078ZM181.279 42.636H182.273V50H181.279V42.636ZM181.783 41.026C181.577 41.026 181.405 40.956 181.265 40.816C181.125 40.676 181.055 40.508 181.055 40.312C181.055 40.1253 181.125 39.962 181.265 39.822C181.405 39.682 181.577 39.612 181.783 39.612C181.988 39.612 182.161 39.682 182.301 39.822C182.441 39.9527 182.511 40.1113 182.511 40.298C182.511 40.5033 182.441 40.676 182.301 40.816C182.161 40.956 181.988 41.026 181.783 41.026ZM191.856 42.636V49.104C191.856 50.3547 191.548 51.2787 190.932 51.876C190.326 52.4827 189.406 52.786 188.174 52.786C187.493 52.786 186.844 52.6833 186.228 52.478C185.622 52.282 185.127 52.0067 184.744 51.652L185.248 50.896C185.603 51.2133 186.032 51.4607 186.536 51.638C187.05 51.8153 187.586 51.904 188.146 51.904C189.08 51.904 189.766 51.6847 190.204 51.246C190.643 50.8167 190.862 50.1447 190.862 49.23V48.292C190.554 48.7587 190.148 49.1133 189.644 49.356C189.15 49.5987 188.599 49.72 187.992 49.72C187.302 49.72 186.672 49.5707 186.102 49.272C185.542 48.964 185.099 48.5393 184.772 47.998C184.455 47.4473 184.296 46.8267 184.296 46.136C184.296 45.4453 184.455 44.8293 184.772 44.288C185.099 43.7467 185.542 43.3267 186.102 43.028C186.662 42.7293 187.292 42.58 187.992 42.58C188.618 42.58 189.182 42.706 189.686 42.958C190.19 43.21 190.596 43.574 190.904 44.05V42.636H191.856ZM188.09 48.838C188.622 48.838 189.103 48.726 189.532 48.502C189.962 48.2687 190.293 47.9467 190.526 47.536C190.769 47.1253 190.89 46.6587 190.89 46.136C190.89 45.6133 190.769 45.1513 190.526 44.75C190.293 44.3393 189.962 44.022 189.532 43.798C189.112 43.5647 188.632 43.448 188.09 43.448C187.558 43.448 187.078 43.56 186.648 43.784C186.228 44.008 185.897 44.3253 185.654 44.736C185.421 45.1467 185.304 45.6133 185.304 46.136C185.304 46.6587 185.421 47.1253 185.654 47.536C185.897 47.9467 186.228 48.2687 186.648 48.502C187.078 48.726 187.558 48.838 188.09 48.838ZM198.388 42.58C199.312 42.58 200.045 42.8507 200.586 43.392C201.137 43.924 201.412 44.7033 201.412 45.73V50H200.418V45.828C200.418 45.0627 200.227 44.4793 199.844 44.078C199.461 43.6767 198.915 43.476 198.206 43.476C197.413 43.476 196.783 43.714 196.316 44.19C195.859 44.6567 195.63 45.3053 195.63 46.136V50H194.636V39.612H195.63V43.924C195.901 43.4947 196.274 43.1633 196.75 42.93C197.226 42.6967 197.772 42.58 198.388 42.58ZM207.989 49.552C207.802 49.72 207.569 49.8507 207.289 49.944C207.018 50.028 206.733 50.07 206.435 50.07C205.744 50.07 205.212 49.8833 204.839 49.51C204.465 49.1367 204.279 48.6093 204.279 47.928V43.476H202.963V42.636H204.279V41.026H205.273V42.636H207.513V43.476H205.273V47.872C205.273 48.3107 205.38 48.6467 205.595 48.88C205.819 49.104 206.136 49.216 206.547 49.216C206.752 49.216 206.948 49.1833 207.135 49.118C207.331 49.0527 207.499 48.9593 207.639 48.838L207.989 49.552ZM217.732 50.042C216.818 50.042 215.982 49.8227 215.226 49.384C214.48 48.9453 213.887 48.348 213.448 47.592C213.019 46.836 212.804 46.0053 212.804 45.1C212.804 44.1947 213.019 43.364 213.448 42.608C213.887 41.852 214.484 41.2547 215.24 40.816C215.996 40.3773 216.836 40.158 217.76 40.158C218.684 40.158 219.52 40.3727 220.266 40.802C221.022 41.2313 221.615 41.824 222.044 42.58C222.474 43.3267 222.688 44.1573 222.688 45.072C222.688 45.9867 222.469 46.8267 222.03 47.592C221.592 48.348 220.994 48.9453 220.238 49.384C219.482 49.8227 218.647 50.042 217.732 50.042ZM217.732 49.524C218.554 49.524 219.3 49.328 219.972 48.936C220.644 48.5347 221.176 47.998 221.568 47.326C221.96 46.6447 222.156 45.8933 222.156 45.072C222.156 44.2507 221.965 43.5087 221.582 42.846C221.2 42.174 220.672 41.6467 220 41.264C219.338 40.872 218.591 40.676 217.76 40.676C216.93 40.676 216.174 40.872 215.492 41.264C214.82 41.656 214.288 42.1927 213.896 42.874C213.514 43.546 213.322 44.288 213.322 45.1C213.322 45.912 213.514 46.6587 213.896 47.34C214.288 48.012 214.82 48.544 215.492 48.936C216.164 49.328 216.911 49.524 217.732 49.524ZM217.858 48.012C217.308 48.012 216.808 47.8907 216.36 47.648C215.922 47.396 215.576 47.0507 215.324 46.612C215.072 46.164 214.946 45.66 214.946 45.1C214.946 44.54 215.072 44.0407 215.324 43.602C215.576 43.154 215.922 42.8087 216.36 42.566C216.808 42.314 217.308 42.188 217.858 42.188C218.334 42.188 218.764 42.286 219.146 42.482C219.538 42.6687 219.851 42.93 220.084 43.266L219.482 43.714C219.286 43.4433 219.048 43.2427 218.768 43.112C218.488 42.9813 218.18 42.916 217.844 42.916C217.238 42.916 216.734 43.1167 216.332 43.518C215.94 43.9193 215.744 44.4467 215.744 45.1C215.744 45.7533 215.94 46.2807 216.332 46.682C216.734 47.0833 217.238 47.284 217.844 47.284C218.18 47.284 218.488 47.2187 218.768 47.088C219.048 46.9573 219.286 46.7567 219.482 46.486L220.084 46.92C219.851 47.2653 219.538 47.536 219.146 47.732C218.764 47.9187 218.334 48.012 217.858 48.012ZM234.481 49.104V50H227.607V49.286L231.681 45.296C232.194 44.792 232.539 44.358 232.717 43.994C232.903 43.6207 232.997 43.2473 232.997 42.874C232.997 42.2953 232.796 41.8473 232.395 41.53C232.003 41.2033 231.438 41.04 230.701 41.04C229.553 41.04 228.661 41.404 228.027 42.132L227.313 41.516C227.695 41.068 228.181 40.7227 228.769 40.48C229.366 40.2373 230.038 40.116 230.785 40.116C231.783 40.116 232.572 40.354 233.151 40.83C233.739 41.2967 234.033 41.9407 234.033 42.762C234.033 43.266 233.921 43.7513 233.697 44.218C233.473 44.6847 233.048 45.2213 232.423 45.828L229.091 49.104H234.481ZM239.597 50.084C238.841 50.084 238.164 49.8833 237.567 49.482C236.979 49.0807 236.517 48.5067 236.181 47.76C235.854 47.004 235.691 46.1173 235.691 45.1C235.691 44.0827 235.854 43.2007 236.181 42.454C236.517 41.698 236.979 41.1193 237.567 40.718C238.164 40.3167 238.841 40.116 239.597 40.116C240.353 40.116 241.025 40.3167 241.613 40.718C242.21 41.1193 242.677 41.698 243.013 42.454C243.349 43.2007 243.517 44.0827 243.517 45.1C243.517 46.1173 243.349 47.004 243.013 47.76C242.677 48.5067 242.21 49.0807 241.613 49.482C241.025 49.8833 240.353 50.084 239.597 50.084ZM239.597 49.16C240.166 49.16 240.666 49.0013 241.095 48.684C241.534 48.3667 241.874 47.9047 242.117 47.298C242.36 46.6913 242.481 45.9587 242.481 45.1C242.481 44.2413 242.36 43.5087 242.117 42.902C241.874 42.2953 241.534 41.8333 241.095 41.516C240.666 41.1987 240.166 41.04 239.597 41.04C239.028 41.04 238.524 41.1987 238.085 41.516C237.656 41.8333 237.32 42.2953 237.077 42.902C236.834 43.5087 236.713 44.2413 236.713 45.1C236.713 45.9587 236.834 46.6913 237.077 47.298C237.32 47.9047 237.656 48.3667 238.085 48.684C238.524 49.0013 239.028 49.16 239.597 49.16ZM247.649 40.2V50H246.641V41.096H244.331V40.2H247.649ZM255.606 44.862C256.222 45.0673 256.693 45.3753 257.02 45.786C257.356 46.1967 257.524 46.6913 257.524 47.27C257.524 47.8393 257.37 48.3387 257.062 48.768C256.754 49.188 256.31 49.5147 255.732 49.748C255.162 49.972 254.49 50.084 253.716 50.084C252.54 50.084 251.616 49.832 250.944 49.328C250.272 48.824 249.936 48.138 249.936 47.27C249.936 46.682 250.094 46.1873 250.412 45.786C250.738 45.3753 251.21 45.0673 251.826 44.862C251.322 44.666 250.939 44.386 250.678 44.022C250.416 43.6487 250.286 43.21 250.286 42.706C250.286 41.9127 250.594 41.2827 251.21 40.816C251.835 40.3493 252.67 40.116 253.716 40.116C254.406 40.116 255.008 40.2233 255.522 40.438C256.044 40.6433 256.45 40.942 256.74 41.334C257.029 41.726 257.174 42.1833 257.174 42.706C257.174 43.21 257.038 43.6487 256.768 44.022C256.497 44.386 256.11 44.666 255.606 44.862ZM251.294 42.734C251.294 43.2753 251.508 43.7047 251.938 44.022C252.367 44.3393 252.96 44.498 253.716 44.498C254.472 44.498 255.064 44.3393 255.494 44.022C255.932 43.7047 256.152 43.28 256.152 42.748C256.152 42.1973 255.928 41.7633 255.48 41.446C255.041 41.1287 254.453 40.97 253.716 40.97C252.969 40.97 252.376 41.1287 251.938 41.446C251.508 41.7633 251.294 42.1927 251.294 42.734ZM253.716 49.23C254.584 49.23 255.26 49.0527 255.746 48.698C256.24 48.3433 256.488 47.8627 256.488 47.256C256.488 46.6493 256.24 46.1733 255.746 45.828C255.26 45.4733 254.584 45.296 253.716 45.296C252.857 45.296 252.18 45.4733 251.686 45.828C251.2 46.1733 250.958 46.6493 250.958 47.256C250.958 47.872 251.2 48.3573 251.686 48.712C252.171 49.0573 252.848 49.23 253.716 49.23ZM265.355 41.096H261.911V40.2H269.835V41.096H266.391V50H265.355V41.096ZM273.525 50.07C272.816 50.07 272.176 49.9113 271.607 49.594C271.038 49.2673 270.59 48.8193 270.263 48.25C269.936 47.6807 269.773 47.0367 269.773 46.318C269.773 45.5993 269.936 44.9553 270.263 44.386C270.59 43.8167 271.038 43.3733 271.607 43.056C272.176 42.7387 272.816 42.58 273.525 42.58C274.234 42.58 274.874 42.7387 275.443 43.056C276.012 43.3733 276.456 43.8167 276.773 44.386C277.1 44.9553 277.263 45.5993 277.263 46.318C277.263 47.0367 277.1 47.6807 276.773 48.25C276.456 48.8193 276.012 49.2673 275.443 49.594C274.874 49.9113 274.234 50.07 273.525 50.07ZM273.525 49.188C274.048 49.188 274.514 49.0713 274.925 48.838C275.345 48.5953 275.672 48.2547 275.905 47.816C276.138 47.3773 276.255 46.878 276.255 46.318C276.255 45.758 276.138 45.2587 275.905 44.82C275.672 44.3813 275.345 44.0453 274.925 43.812C274.514 43.5693 274.048 43.448 273.525 43.448C273.002 43.448 272.531 43.5693 272.111 43.812C271.7 44.0453 271.374 44.3813 271.131 44.82C270.898 45.2587 270.781 45.758 270.781 46.318C270.781 46.878 270.898 47.3773 271.131 47.816C271.374 48.2547 271.7 48.5953 272.111 48.838C272.531 49.0713 273.002 49.188 273.525 49.188ZM283.722 50L281.384 46.92L279.032 50H277.912L280.824 46.22L278.052 42.636H279.172L281.384 45.52L283.596 42.636H284.688L281.916 46.22L284.856 50H283.722ZM286.511 42.636H287.505V50H286.511V42.636ZM287.015 41.026C286.81 41.026 286.637 40.956 286.497 40.816C286.357 40.676 286.287 40.508 286.287 40.312C286.287 40.1253 286.357 39.962 286.497 39.822C286.637 39.682 286.81 39.612 287.015 39.612C287.22 39.612 287.393 39.682 287.533 39.822C287.673 39.9527 287.743 40.1113 287.743 40.298C287.743 40.5033 287.673 40.676 287.533 40.816C287.393 40.956 287.22 41.026 287.015 41.026ZM294.023 42.58C294.947 42.58 295.679 42.8507 296.221 43.392C296.771 43.924 297.047 44.7033 297.047 45.73V50H296.053V45.828C296.053 45.0627 295.861 44.4793 295.479 44.078C295.096 43.6767 294.55 43.476 293.841 43.476C293.047 43.476 292.417 43.714 291.951 44.19C291.493 44.6567 291.265 45.3053 291.265 46.136V50H290.271V42.636H291.223V43.994C291.493 43.546 291.867 43.2007 292.343 42.958C292.828 42.706 293.388 42.58 294.023 42.58ZM306.475 50.07C305.766 50.07 305.127 49.9113 304.557 49.594C303.988 49.2673 303.54 48.8193 303.213 48.25C302.887 47.6807 302.723 47.0367 302.723 46.318C302.723 45.5993 302.887 44.9553 303.213 44.386C303.54 43.8167 303.988 43.3733 304.557 43.056C305.127 42.7387 305.766 42.58 306.475 42.58C307.185 42.58 307.824 42.7387 308.393 43.056C308.963 43.3733 309.406 43.8167 309.723 44.386C310.05 44.9553 310.213 45.5993 310.213 46.318C310.213 47.0367 310.05 47.6807 309.723 48.25C309.406 48.8193 308.963 49.2673 308.393 49.594C307.824 49.9113 307.185 50.07 306.475 50.07ZM306.475 49.188C306.998 49.188 307.465 49.0713 307.875 48.838C308.295 48.5953 308.622 48.2547 308.855 47.816C309.089 47.3773 309.205 46.878 309.205 46.318C309.205 45.758 309.089 45.2587 308.855 44.82C308.622 44.3813 308.295 44.0453 307.875 43.812C307.465 43.5693 306.998 43.448 306.475 43.448C305.953 43.448 305.481 43.5693 305.061 43.812C304.651 44.0453 304.324 44.3813 304.081 44.82C303.848 45.2587 303.731 45.758 303.731 46.318C303.731 46.878 303.848 47.3773 304.081 47.816C304.324 48.2547 304.651 48.5953 305.061 48.838C305.481 49.0713 305.953 49.188 306.475 49.188ZM317.244 43.518H314.458V50H313.464V43.518H310.678V42.636H317.244V43.518ZM324.78 46.626H318.62C318.676 47.3913 318.97 48.012 319.502 48.488C320.034 48.9547 320.706 49.188 321.518 49.188C321.975 49.188 322.395 49.1087 322.778 48.95C323.16 48.782 323.492 48.5393 323.772 48.222L324.332 48.866C324.005 49.258 323.594 49.5567 323.1 49.762C322.614 49.9673 322.078 50.07 321.49 50.07C320.734 50.07 320.062 49.9113 319.474 49.594C318.895 49.2673 318.442 48.8193 318.116 48.25C317.789 47.6807 317.626 47.0367 317.626 46.318C317.626 45.5993 317.78 44.9553 318.088 44.386C318.405 43.8167 318.834 43.3733 319.376 43.056C319.926 42.7387 320.542 42.58 321.224 42.58C321.905 42.58 322.516 42.7387 323.058 43.056C323.599 43.3733 324.024 43.8167 324.332 44.386C324.64 44.946 324.794 45.59 324.794 46.318L324.78 46.626ZM321.224 43.434C320.514 43.434 319.917 43.6627 319.432 44.12C318.956 44.568 318.685 45.156 318.62 45.884H323.842C323.776 45.156 323.501 44.568 323.016 44.12C322.54 43.6627 321.942 43.434 321.224 43.434ZM332.864 42.636V50H331.87V43.518H328.342L328.244 45.338C328.169 46.8687 327.992 48.0447 327.712 48.866C327.432 49.6873 326.932 50.098 326.214 50.098C326.018 50.098 325.78 50.0607 325.5 49.986L325.57 49.132C325.738 49.1693 325.854 49.188 325.92 49.188C326.302 49.188 326.592 49.0107 326.788 48.656C326.984 48.3013 327.114 47.8627 327.18 47.34C327.245 46.8173 327.301 46.1267 327.348 45.268L327.474 42.636H332.864ZM338.853 45.24C339.777 45.2493 340.477 45.4547 340.953 45.856C341.439 46.2573 341.681 46.836 341.681 47.592C341.681 48.376 341.42 48.978 340.897 49.398C340.384 49.818 339.637 50.0233 338.657 50.014L335.689 50V42.636H336.683V45.212L338.853 45.24ZM338.601 49.258C339.283 49.2673 339.796 49.132 340.141 48.852C340.496 48.5627 340.673 48.1427 340.673 47.592C340.673 47.0507 340.501 46.6493 340.155 46.388C339.81 46.1267 339.292 45.9913 338.601 45.982L336.683 45.954V49.23L338.601 49.258ZM343.539 50.07C343.333 50.07 343.156 49.9953 343.007 49.846C342.867 49.6967 342.797 49.5147 342.797 49.3C342.797 49.0853 342.867 48.908 343.007 48.768C343.156 48.6187 343.333 48.544 343.539 48.544C343.744 48.544 343.921 48.6187 344.071 48.768C344.22 48.908 344.295 49.0853 344.295 49.3C344.295 49.5147 344.22 49.6967 344.071 49.846C343.921 49.9953 343.744 50.07 343.539 50.07ZM356.148 44.946C356.829 45.086 357.347 45.3613 357.702 45.772C358.056 46.1733 358.234 46.7007 358.234 47.354C358.234 48.2033 357.93 48.8567 357.324 49.314C356.726 49.7713 355.844 50 354.678 50H350.338V40.2H354.412C355.457 40.2 356.274 40.4147 356.862 40.844C357.45 41.2733 357.744 41.894 357.744 42.706C357.744 43.2567 357.604 43.7233 357.324 44.106C357.044 44.4793 356.652 44.7593 356.148 44.946ZM351.36 44.638H354.356C355.112 44.638 355.69 44.484 356.092 44.176C356.502 43.868 356.708 43.42 356.708 42.832C356.708 42.244 356.502 41.796 356.092 41.488C355.69 41.18 355.112 41.026 354.356 41.026H351.36V44.638ZM354.678 49.174C356.367 49.174 357.212 48.544 357.212 47.284C357.212 46.052 356.367 45.436 354.678 45.436H351.36V49.174H354.678ZM363.666 50.07C362.938 50.07 362.285 49.9113 361.706 49.594C361.137 49.2767 360.689 48.8333 360.362 48.264C360.035 47.6853 359.872 47.0367 359.872 46.318C359.872 45.5993 360.035 44.9553 360.362 44.386C360.689 43.8167 361.137 43.3733 361.706 43.056C362.285 42.7387 362.938 42.58 363.666 42.58C364.301 42.58 364.865 42.706 365.36 42.958C365.864 43.2007 366.261 43.56 366.55 44.036L365.808 44.54C365.565 44.176 365.257 43.9053 364.884 43.728C364.511 43.5413 364.105 43.448 363.666 43.448C363.134 43.448 362.653 43.5693 362.224 43.812C361.804 44.0453 361.473 44.3813 361.23 44.82C360.997 45.2587 360.88 45.758 360.88 46.318C360.88 46.8873 360.997 47.3913 361.23 47.83C361.473 48.2593 361.804 48.5953 362.224 48.838C362.653 49.0713 363.134 49.188 363.666 49.188C364.105 49.188 364.511 49.0993 364.884 48.922C365.257 48.7447 365.565 48.474 365.808 48.11L366.55 48.614C366.261 49.09 365.864 49.454 365.36 49.706C364.856 49.9487 364.291 50.07 363.666 50.07ZM374.792 46.626H368.632C368.688 47.3913 368.982 48.012 369.514 48.488C370.046 48.9547 370.718 49.188 371.53 49.188C371.987 49.188 372.407 49.1087 372.79 48.95C373.172 48.782 373.504 48.5393 373.784 48.222L374.344 48.866C374.017 49.258 373.606 49.5567 373.112 49.762C372.626 49.9673 372.09 50.07 371.502 50.07C370.746 50.07 370.074 49.9113 369.486 49.594C368.907 49.2673 368.454 48.8193 368.128 48.25C367.801 47.6807 367.638 47.0367 367.638 46.318C367.638 45.5993 367.792 44.9553 368.1 44.386C368.417 43.8167 368.846 43.3733 369.388 43.056C369.938 42.7387 370.554 42.58 371.236 42.58C371.917 42.58 372.528 42.7387 373.07 43.056C373.611 43.3733 374.036 43.8167 374.344 44.386C374.652 44.946 374.806 45.59 374.806 46.318L374.792 46.626ZM371.236 43.434C370.526 43.434 369.929 43.6627 369.444 44.12C368.968 44.568 368.697 45.156 368.632 45.884H373.854C373.788 45.156 373.513 44.568 373.028 44.12C372.552 43.6627 371.954 43.434 371.236 43.434ZM387.278 42.636V50H386.284V43.518H381.664V50H380.67V42.636H387.278ZM393.897 42.58C394.588 42.58 395.213 42.7387 395.773 43.056C396.333 43.364 396.772 43.8027 397.089 44.372C397.407 44.9413 397.565 45.59 397.565 46.318C397.565 47.0553 397.407 47.7087 397.089 48.278C396.772 48.8473 396.333 49.2907 395.773 49.608C395.223 49.916 394.597 50.07 393.897 50.07C393.3 50.07 392.759 49.9487 392.273 49.706C391.797 49.454 391.405 49.09 391.097 48.614V52.716H390.103V42.636H391.055V44.092C391.354 43.6067 391.746 43.2333 392.231 42.972C392.726 42.7107 393.281 42.58 393.897 42.58ZM393.827 49.188C394.341 49.188 394.807 49.0713 395.227 48.838C395.647 48.5953 395.974 48.2547 396.207 47.816C396.45 47.3773 396.571 46.878 396.571 46.318C396.571 45.758 396.45 45.2633 396.207 44.834C395.974 44.3953 395.647 44.0547 395.227 43.812C394.807 43.5693 394.341 43.448 393.827 43.448C393.305 43.448 392.833 43.5693 392.413 43.812C392.003 44.0547 391.676 44.3953 391.433 44.834C391.2 45.2633 391.083 45.758 391.083 46.318C391.083 46.878 391.2 47.3773 391.433 47.816C391.676 48.2547 392.003 48.5953 392.413 48.838C392.833 49.0713 393.305 49.188 393.827 49.188ZM402.194 42.58C403.155 42.58 403.893 42.8227 404.406 43.308C404.919 43.784 405.176 44.4933 405.176 45.436V50H404.224V48.852C404 49.2347 403.669 49.5333 403.23 49.748C402.801 49.9627 402.287 50.07 401.69 50.07C400.869 50.07 400.215 49.874 399.73 49.482C399.245 49.09 399.002 48.572 399.002 47.928C399.002 47.3027 399.226 46.7987 399.674 46.416C400.131 46.0333 400.855 45.842 401.844 45.842H404.182V45.394C404.182 44.7593 404.005 44.2787 403.65 43.952C403.295 43.616 402.777 43.448 402.096 43.448C401.629 43.448 401.181 43.5273 400.752 43.686C400.323 43.8353 399.954 44.0453 399.646 44.316L399.198 43.574C399.571 43.2567 400.019 43.014 400.542 42.846C401.065 42.6687 401.615 42.58 402.194 42.58ZM401.844 49.286C402.404 49.286 402.885 49.16 403.286 48.908C403.687 48.6467 403.986 48.2733 404.182 47.788V46.584H401.872C400.612 46.584 399.982 47.0227 399.982 47.9C399.982 48.3293 400.145 48.67 400.472 48.922C400.799 49.1647 401.256 49.286 401.844 49.286ZM412.512 46.192C413.511 46.4253 414.01 47.0273 414.01 47.998C414.01 48.642 413.772 49.1367 413.296 49.482C412.82 49.8273 412.111 50 411.168 50H407.822V42.636H411.07C411.91 42.636 412.568 42.7993 413.044 43.126C413.52 43.4527 413.758 43.9193 413.758 44.526C413.758 44.9273 413.646 45.2727 413.422 45.562C413.208 45.842 412.904 46.052 412.512 46.192ZM408.788 45.912H411C411.57 45.912 412.004 45.8047 412.302 45.59C412.61 45.3753 412.764 45.0627 412.764 44.652C412.764 44.2413 412.61 43.9333 412.302 43.728C412.004 43.5227 411.57 43.42 411 43.42H408.788V45.912ZM411.126 49.216C411.761 49.216 412.237 49.1133 412.554 48.908C412.872 48.7027 413.03 48.3807 413.03 47.942C413.03 47.5033 412.886 47.1813 412.596 46.976C412.307 46.7613 411.85 46.654 411.224 46.654H408.788V49.216H411.126ZM418.874 42.58C419.835 42.58 420.572 42.8227 421.086 43.308C421.599 43.784 421.856 44.4933 421.856 45.436V50H420.904V48.852C420.68 49.2347 420.348 49.5333 419.91 49.748C419.48 49.9627 418.967 50.07 418.37 50.07C417.548 50.07 416.895 49.874 416.41 49.482C415.924 49.09 415.682 48.572 415.682 47.928C415.682 47.3027 415.906 46.7987 416.354 46.416C416.811 46.0333 417.534 45.842 418.524 45.842H420.862V45.394C420.862 44.7593 420.684 44.2787 420.33 43.952C419.975 43.616 419.457 43.448 418.776 43.448C418.309 43.448 417.861 43.5273 417.432 43.686C417.002 43.8353 416.634 44.0453 416.326 44.316L415.878 43.574C416.251 43.2567 416.699 43.014 417.222 42.846C417.744 42.6687 418.295 42.58 418.874 42.58ZM418.524 49.286C419.084 49.286 419.564 49.16 419.966 48.908C420.367 48.6467 420.666 48.2733 420.862 47.788V46.584H418.552C417.292 46.584 416.662 47.0227 416.662 47.9C416.662 48.3293 416.825 48.67 417.152 48.922C417.478 49.1647 417.936 49.286 418.524 49.286ZM431.75 46.164C432.273 46.2853 432.674 46.4953 432.954 46.794C433.243 47.0927 433.388 47.4567 433.388 47.886C433.388 48.3153 433.239 48.698 432.94 49.034C432.651 49.37 432.254 49.6313 431.75 49.818C431.246 49.9953 430.691 50.084 430.084 50.084C429.552 50.084 429.029 50.0093 428.516 49.86C428.003 49.7013 427.555 49.4727 427.172 49.174L427.508 48.432C427.844 48.684 428.236 48.88 428.684 49.02C429.132 49.16 429.585 49.23 430.042 49.23C430.723 49.23 431.279 49.104 431.708 48.852C432.147 48.5907 432.366 48.2407 432.366 47.802C432.366 47.41 432.189 47.1067 431.834 46.892C431.479 46.668 430.994 46.556 430.378 46.556H429.118V45.828H430.322C430.873 45.828 431.316 45.7253 431.652 45.52C431.988 45.3053 432.156 45.0207 432.156 44.666C432.156 44.274 431.965 43.966 431.582 43.742C431.209 43.518 430.719 43.406 430.112 43.406C429.319 43.406 428.535 43.6067 427.76 44.008L427.48 43.238C428.357 42.7807 429.267 42.552 430.21 42.552C430.77 42.552 431.274 42.636 431.722 42.804C432.179 42.9627 432.534 43.1913 432.786 43.49C433.047 43.7887 433.178 44.134 433.178 44.526C433.178 44.8993 433.047 45.2307 432.786 45.52C432.534 45.8093 432.189 46.024 431.75 46.164ZM438.178 42.58C439.14 42.58 439.877 42.8227 440.39 43.308C440.904 43.784 441.16 44.4933 441.16 45.436V50H440.208V48.852C439.984 49.2347 439.653 49.5333 439.214 49.748C438.785 49.9627 438.272 50.07 437.674 50.07C436.853 50.07 436.2 49.874 435.714 49.482C435.229 49.09 434.986 48.572 434.986 47.928C434.986 47.3027 435.21 46.7987 435.658 46.416C436.116 46.0333 436.839 45.842 437.828 45.842H440.166V45.394C440.166 44.7593 439.989 44.2787 439.634 43.952C439.28 43.616 438.762 43.448 438.08 43.448C437.614 43.448 437.166 43.5273 436.736 43.686C436.307 43.8353 435.938 44.0453 435.63 44.316L435.182 43.574C435.556 43.2567 436.004 43.014 436.526 42.846C437.049 42.6687 437.6 42.58 438.178 42.58ZM437.828 49.286C438.388 49.286 438.869 49.16 439.27 48.908C439.672 48.6467 439.97 48.2733 440.166 47.788V46.584H437.856C436.596 46.584 435.966 47.0227 435.966 47.9C435.966 48.3293 436.13 48.67 436.456 48.922C436.783 49.1647 437.24 49.286 437.828 49.286ZM449.365 42.636V50H448.371V46.934C447.521 47.3073 446.686 47.494 445.865 47.494C444.978 47.494 444.287 47.2933 443.793 46.892C443.298 46.4813 443.051 45.87 443.051 45.058V42.636H444.045V45.002C444.045 45.5527 444.222 45.9727 444.577 46.262C444.931 46.542 445.421 46.682 446.047 46.682C446.737 46.682 447.512 46.5 448.371 46.136V42.636H449.365ZM452.187 42.636H453.181V48.488L458.095 42.636H458.977V50H457.983V44.148L453.083 50H452.187V42.636ZM471.99 42.636V50H461.826V42.636H462.82V49.132H466.432V42.636H467.426V49.132H470.996V42.636H471.99ZM473.124 49.132V51.61H472.186V50H470.94V49.132H473.124ZM481.268 46.626H475.108C475.164 47.3913 475.458 48.012 475.99 48.488C476.522 48.9547 477.194 49.188 478.006 49.188C478.463 49.188 478.883 49.1087 479.266 48.95C479.649 48.782 479.98 48.5393 480.26 48.222L480.82 48.866C480.493 49.258 480.083 49.5567 479.588 49.762C479.103 49.9673 478.566 50.07 477.978 50.07C477.222 50.07 476.55 49.9113 475.962 49.594C475.383 49.2673 474.931 48.8193 474.604 48.25C474.277 47.6807 474.114 47.0367 474.114 46.318C474.114 45.5993 474.268 44.9553 474.576 44.386C474.893 43.8167 475.323 43.3733 475.864 43.056C476.415 42.7387 477.031 42.58 477.712 42.58C478.393 42.58 479.005 42.7387 479.546 43.056C480.087 43.3733 480.512 43.8167 480.82 44.386C481.128 44.946 481.282 45.59 481.282 46.318L481.268 46.626ZM477.712 43.434C477.003 43.434 476.405 43.6627 475.92 44.12C475.444 44.568 475.173 45.156 475.108 45.884H480.33C480.265 45.156 479.989 44.568 479.504 44.12C479.028 43.6627 478.431 43.434 477.712 43.434ZM483.482 42.636H484.476V45.898H489.11V42.636H490.104V50H489.11V46.752H484.476V50H483.482V42.636ZM496.024 45.24C496.948 45.2493 497.652 45.4547 498.138 45.856C498.623 46.2573 498.866 46.836 498.866 47.592C498.866 48.376 498.604 48.978 498.082 49.398C497.559 49.818 496.812 50.0233 495.842 50.014L492.93 50V42.636H493.924V45.212L496.024 45.24ZM500.098 42.636H501.092V50H500.098V42.636ZM495.786 49.258C496.467 49.2673 496.98 49.132 497.326 48.852C497.68 48.5627 497.858 48.1427 497.858 47.592C497.858 47.0507 497.685 46.6493 497.34 46.388C496.994 46.1267 496.476 45.9913 495.786 45.982L493.924 45.954V49.23L495.786 49.258ZM503.992 50.07C503.786 50.07 503.609 49.9953 503.46 49.846C503.32 49.6967 503.25 49.5147 503.25 49.3C503.25 49.0853 503.32 48.908 503.46 48.768C503.609 48.6187 503.786 48.544 503.992 48.544C504.197 48.544 504.374 48.6187 504.524 48.768C504.673 48.908 504.748 49.0853 504.748 49.3C504.748 49.5147 504.673 49.6967 504.524 49.846C504.374 49.9953 504.197 50.07 503.992 50.07Z" fill="#1F2041" fill-opacity="0.75"/>
<defs>
<filter id="filter0_d" x="-21" y="0" width="1480" height="110" filterUnits="userSpaceOnUse" color-interpolation-filters="sRGB">
<feFlood flood-opacity="0" result="BackgroundImageFix"/>
<feColorMatrix in="SourceAlpha" type="matrix" values="0 0 0 0 0 0 0 0 0 0 0 0 0 0 0 0 0 0 127 0"/>
<feOffset dy="10"/>
<feGaussianBlur stdDeviation="10"/>
<feColorMatrix type="matrix" values="0 0 0 0 0.121569 0 0 0 0 0.12549 0 0 0 0 0.254902 0 0 0 0.05 0"/>
<feBlend mode="normal" in2="BackgroundImageFix" result="effect1_dropShadow"/>
<feBlend mode="normal" in="SourceGraphic" in2="effect1_dropShadow" result="shape"/>
</filter>
<linearGradient id="paint0_linear" x1="1199" y1="33" x2="1199" y2="57" gradientUnits="userSpaceOnUse">
<stop stop-color="#BC9CFF"/>
<stop offset="1" stop-color="#8BA4F9"/>
</linearGradient>
<linearGradient id="paint1_linear" x1="1243" y1="33" x2="1243" y2="57" gradientUnits="userSpaceOnUse">
<stop stop-color="#BC9CFF"/>
<stop offset="1" stop-color="#8BA4F9"/>
</linearGradient>
<linearGradient id="paint2_linear" x1="1287" y1="33" x2="1287" y2="57" gradientUnits="userSpaceOnUse">
<stop stop-color="#BC9CFF"/>
<stop offset="1" stop-color="#8BA4F9"/>
</linearGradient>
</defs>
</svg>

